<svg xmlns="http://www.w3.org/2000/svg" width="4096" height="2607" preserveAspectRatio="none" style="display:block" viewBox="0 0 2607 2607"><defs><linearGradient id="d" x1="2445.4" x2="2445.2" y1="2183.9" y2="2200" gradientUnits="userSpaceOnUse"><stop class="stop0" offset="0" stop-color="#cbdcca"/><stop class="stop1" offset="1" stop-color="#d9d4d1"/></linearGradient><linearGradient id="c" x1="2197.7" x2="2228.9" y1="440.2" y2="443.2" gradientUnits="userSpaceOnUse"><stop class="stop0" offset="0" stop-color="#565453"/><stop class="stop1" offset="1" stop-color="#6c6d6c"/></linearGradient><linearGradient id="b" x1="2186.9" x2="2143.6" y1="544.3" y2="562.6" gradientUnits="userSpaceOnUse"><stop class="stop0" offset="0" stop-color="#5d5a55"/><stop class="stop1" offset="1" stop-color="#6f7070"/></linearGradient><linearGradient id="a" x1="2213.7" x2="2269.3" y1="434.8" y2="448.1" gradientUnits="userSpaceOnUse"><stop class="stop0" offset="0" stop-color="#524f4e"/><stop class="stop1" offset="1" stop-color="#676867"/></linearGradient></defs><path fill="#2e732f" d="M626 3c13 3 14-1 31 3q1 11 6 19l5 10c8 6 10 7 19 11 23-9 24-18 31-40 11-2 15-2 26-2h2c12 1 32 2 43-1 13 2 18 2 31 2 5 17 7 23 19 36l11 4c22-6 27-19 32-40q13 2 25-1h52q12 2 26 1c12 52 48 51 61 1 10-2 15-3 25-1q3-2 5-1c9 3 43-1 47 0q12 2 25 2c4 12 9 29 21 35 25 13 36-19 42-35 20-2 52 2 68-3l31 3c7 25 12 37 39 36 21-14 18-32 25-36l46-1h419l37 1v1c9 18 7 29 28 37l2 1 1 1c20-7 23-13 30-32q-1-4 3-7 11-3 23-1c8-4 30 4 46-3 12 4 17-1 30 3q2 11 8 22l5 9q8 6 17 8c23-8 25-17 31-39l26-2c3-1 13 1 18 1q28 0 56 1c6 17 9 25 23 36q12 2 23-3c13-14 13-28 18-33 53-3 124-1 178-1 51 0 115-1 164 1v791c0 16-1 218 1 222v1584c-6 2-41 1-48 1h-297c-5-18-9-23-24-34-26-1-30 12-39 34h-97c-5-13-10-27-24-32q-9-3-18 1c-12 6-17 19-21 31h-98c-6-17-17-42-42-31-11 5-17 20-21 31h-507c-12-46-49-45-62 0h-98c-5-17-18-42-41-31-13 5-17 19-22 31h-97c-5-18-17-42-41-31-12 5-17 19-21 31h-24c-9 2-44 0-56 0h-24c-13-46-47-45-61 0H720c-14-46-47-45-62 0H555c-3-12-9-26-22-32q-8-3-18 0-18 12-22 32h-79q-11 1-23 0-4-2-6-8c-14-33-44-34-55-2l-3 10H225v-1c-5-12-11-26-24-31q-9-3-17 1c-13 6-17 19-21 31H2v-352c0-61-1-130 1-191l-1-4q-1-21 1-42c34-24 33-75 0-100q-2-22-1-46l1-3c-2-22-1-67-1-90q-1-21 1-42c14-11 16-14 22-31 4-21 2-31-4-51-6-8-10-11-18-17-2-13-1-32-1-46v-94l1-43c32-25 33-74 0-100q-2-21-1-44v-138c23-16 28-38 24-65-3-17-10-26-23-36q-2-22-1-45V893c20-18 28-37 24-65q-3-24-24-38v-43l1-136c33-26 33-76 0-102q-2-21-1-43V6c44 0 95 1 137-1l23 1c5 16 8 27 23 36h17c14-10 18-20 22-36l25-1 57 1 21-1q4 17 13 31c11 8 12 7 26 6 15-9 18-20 22-36l24-1c24 2 55-2 78 1 6 16 9 27 24 36 28 1 31-11 40-36 18-3 61 1 72-3"/><path fill="#ddb648" d="M2 1308c12 0 34-2 44 3 2 2 3 10 3 13-2 26 6 152-2 168-8 4-35 3-45 3l1-43c32-25 33-74 0-100q-2-21-1-44M2 1024l21-1c19 0 27 0 27 22q1 77-1 154c-1 12-8 12-17 12H2v-41c23-16 28-38 24-65-3-17-10-26-23-36q-2-22-1-45"/><path fill="#d5bd5d" d="M2 1869c10 0 38-1 45 3 4 13 4 167 0 181-6 6-35 3-45 4q-1-21 1-42c34-24 33-75 0-100q-2-22-1-46"/><path fill="#ddb648" d="M36 1877c5-1 3-1 7 1 4 16 4 155-1 170-8 1-25 3-32-1q-2-1-3-5l-1-23c26-17 31-67 18-92-15-30-15-9-14-49q13 1 26-1M2 1589c11 0 38-2 45 4 4 12 4 165 0 179-6 6-35 4-45 4q-1-21 1-42c14-11 16-14 22-31 4-21 2-31-4-51-6-8-10-11-18-17-2-13-1-32-1-46"/><path fill="#d5bd5d" d="M2 1589c11 0 38-2 45 4 4 12 4 165 0 179-6 6-35 4-45 4q-1-21 1-42c14-11 16-14 22-31 4 22-16 22-16 44 0 6-1 16 5 20 4 4 19 3 25 3q2 0 4-2c5-7 3-155 1-170l-19-1q-8-3-14 2c-3 7-3 24-3 33l4 4c6 6 9 8 9 16-6-8-10-11-18-17-2-13-1-32-1-46M2 747c9 0 42-2 44 4 6 18 4 77 4 95 0 32 1 50-2 80q0 4-3 5c-11 4-31 2-43 2v-40c20-18 28-37 24-65q-3-24-24-38z"/><path fill="#ddb648" d="M27 754q10-2 16 3c4 15 3 150 1 165-5 4-18 3-27 4-6 1-5 1-9-1-9-17 12-40 18-56 9-29 9-65-18-84l-1-28z"/><path fill="#d5bd5d" d="M2 466c55-1 47-4 48 53v113q1 10-6 19c-9 3-31 1-42 1 0-12-1-29 1-41 33-26 33-76 0-102q-2-21-1-43"/><path fill="#ddb648" d="M21 473h14q6 2 8 7l3 9c-1 24 2 138-3 153-4 4-20 1-29 1l-1 2q-3 1-4-2-2-11-1-24c26-32 29-63 12-102-3-7-18-11-16-26 2-14 3-18 17-18M626 3c13 3 14-1 31 3q1 11 6 19l5 10c8 6 10 7 19 11 23-9 24-18 31-40 11-2 15-2 26-2v32c0 14 4 38-14 40-17-1-80 3-93-3-14-6 3-60-11-70"/><path fill="#d5bd5d" d="M718 6c11-2 15-2 26-2v32c0 14 4 38-14 40l-1-2 8-4c3-8 5-52 1-59l-10-2c-8 4-17 22-21 30-10 19-39 11-39-4 8 6 10 7 19 11 23-9 24-18 31-40M139 5l23 1c5 16 8 27 23 36h17c14-10 18-20 22-36l25-1c1 15 3 57-5 68-11 4-92 5-103 0-7-10-5-28-5-40 0-7-2-24 3-28"/><path fill="#ddb648" d="M229 10c5-1 16-1 16 6 0 8 3 49-6 50-20 3-79 7-94-2-4-5-3-3-3-9 0-12-4-35 7-42 19-2 13 22 38 34l1 1c40 0 25-21 41-38M1937 14q-1-4 3-7 11-3 23-1l2 1c2 16-1 43 0 59-9 12-11 11-25 10-15 0-71 1-81-1-7-6-7-11-9-19 2-5 1-41 1-50h25v1c9 18 7 29 28 37l2 1 1 1c20-7 23-13 30-32"/><path fill="#d5bd5d" d="M1937 14q-1-4 3-7 11-3 23-1l2 1c2 16-1 43 0 59-9 12-11 11-25 10-3-2-10-2-12-5 14-5 23 1 31-8q2-10 1-21c-1-11 5-25-4-32-10-2-12 0-19 4"/><path fill="#ddb648" d="M2264 6h25c0 17 4 53-6 67q-6 5-15 3h-48c-42 1-44 5-44-43V6h24c6 17 9 25 23 36q12 2 23-3c13-14 13-28 18-33"/><path fill="#d5bd5d" d="M2264 6h25c0 17 4 53-6 67q-6 5-15 3l-4-5q7-5 18-5c1-7 2-47 1-52q-9-3-17-1c-5 10-9 24-20 26 13-14 13-28 18-33M1123 4q12 2 25 2c4 12 9 29 21 35 25 13 36-19 42-35h24v25c0 12 3 32-5 42-4 4-16 3-21 3-25-1-49 2-74 0-14-1-13-19-13-29z"/><path fill="#ddb648" d="M1130 12c24 0 15 8 25 26 7 13 11 13 25 12 24-2 26-31 42-40 13 1 9 27 9 36-1 8 1 13-4 20-9 4-82 0-96-2-5-6-4-44-1-52M388 6l24-1c4 8 1 37 2 49-1 11-1 22-15 22h-78q-10 1-17-7c-3-8-4-56-2-62l4-1 21-1q4 17 13 31c11 8 12 7 26 6 15-9 18-20 22-36"/><path fill="#d5bd5d" d="m388 6 24-1c4 8 1 37 2 49-1 11-1 22-15 22-10-2-9-4-21-4h-2l-1-2-3 1s30-4 35-6c4-7 2-42 2-52-3-1-15-2-16 0-12 19-12 43-44 33q-8-2-9-10c11 8 12 7 26 6 15-9 18-20 22-36"/><path fill="#ddb648" d="M1046 6c10-2 15-3 25-1l1 26c0 14 2 32-6 42-11 5-90 5-102 0-9-12-3-52-5-69q12 2 26 1c12 52 48 51 61 1M2009 3c12 4 17-1 30 3q2 11 8 22l5 9q8 6 17 8c23-8 25-17 31-39l26-2c0 18 5 60-8 71-21 5-63-1-86 1-16 2-17-9-19-22 2-8 1-35 1-44q0-5-5-7"/><path fill="#d5bd5d" d="m2100 6 26-2c0 18 5 60-8 71-5-2-17-3-23-4 4-1 23-3 24-5 2-9 5-52-2-57l-13 2c-12 20-11 43-43 36q-7-2-9-10 8 6 17 8c23-8 25-17 31-39"/><path fill="#ddb648" d="m1279 3 31 3c7 25 12 37 39 36 21-14 18-32 25-36h23c0 15 3 56-5 67-4 5-18 3-24 3h-13c-13-1-54 3-63-2-14-7-2-53-7-67q-1-2-6-4"/><path fill="#d5bd5d" d="m1279 3 31 3c7 25 12 37 39 36 21-14 18-32 25-36h23c0 15 3 56-5 67-4 5-18 3-24 3h-4c-2-5-2-3-1-7 6-4 19-4 27-4l1-52c-25 0-16 20-33 32-7 5-16 3-23 2-22-4-17-33-34-38q-7-1-11 3c-3 7-1 36 0 45 1 17 54 10 65 19-13-1-54 3-63-2-14-7-2-53-7-67q-1-2-6-4"/><path fill="#ddb648" d="M789 3c13 2 18 2 31 2 5 17 7 23 19 36l11 4c22-6 27-19 32-40q13 2 25-1c-9 45 26 74-40 72-81-2-71 16-72-67q-1-4-6-6"/><path fill="#d5bd5d" d="M554 6h24c0 15 3 57-5 67-14 5-34 2-49 3h-27c-22 0-29 3-31-22l1-48h23c6 16 9 27 24 36 28 1 31-11 40-36"/><path fill="#ddb648" d="M559 12c7-1 9-2 14 2 2 6 3 52-4 52-20 2-78 5-95-3q-2-8-2-18c3-7-4-25 2-32 23 2 12 12 26 27 11 13 26 9 40 3 6-9 14-28 19-31M801 2604l-2-1c-1-8-3-60 3-61 19-2 92-6 107-1 2 8 4 59 0 63h-24c-13-46-47-45-61 0zM302 2542c11-6 64-1 80-2h27q3 2 5 6v58q-11 1-23 0-4-2-6-8c-14-33-44-34-55-2l-3 10h-24c-3-6-2-52-1-62M1345 2540l27-1c24-3 25 6 25 27 0 7 1 32-1 37l-2 1h-23c-12-46-49-45-62 0h-22l-2-1c-4-6-3-54 2-61 5-4 48-2 58-2"/><path fill="#d5bd5d" d="m1345 2540 27-1c24-3 25 6 25 27 0 7 1 32-1 37l-2 1h-23c-12-46-49-45-62 0h-22l-2-1c-4-6-3-54 2-61 3 11-7 44 2 56 16 10 23-17 31-27l1-2c36-16 37 2 57 23 2 1 5-2 8 5h2c5-7 4-28 4-37-3-27-33-8-47-20"/><path fill="#ddb648" d="M2174 2589c0-13-2-38 4-47 10-3 100-4 106 0 6 8 4 16 4 26v24c0 6 1 6-2 10-7 4-15 1-24 2-5-18-9-23-24-34-26-1-30 12-39 34h-25z"/><path fill="#d5bd5d" d="M2174 2589c0-13-2-38 4-47 10-3 100-4 106 0 6 8 4 16 4 26-4-9-1-17-8-24-5-2-90 0-99 3-5 6-4 37-2 43 6 3 8 3 14 3 7-3 18-40 40-32 20 8 25 26 34 40 11 1 16 3 21-9 0 6 1 6-2 10-7 4-15 1-24 2-5-18-9-23-24-34-26-1-30 12-39 34h-25z"/><path fill="#ddb648" d="M138 2604c-3-5-4-58 4-64 13-1 91-1 102 1 10 10 4 26 5 39q3 12-1 23l-7 1h-16v-1c-5-12-11-26-24-31q-9-3-17 1c-13 6-17 19-21 31zM1123 2603c0-14-2-48 2-59 7-7 98-6 107-3l3 9c0 11 2 43 0 53l-3 1h-21c-5-17-18-42-41-31-13 5-17 19-22 31h-11zM965 2604c-4-3-4-61 1-62 31-6 68-1 100-2q6 1 7 3c4 9 3 49 2 58-2 3 0 2-3 3h-21c-5-18-17-42-41-31-12 5-17 19-21 31zM2018 2604l-4-1c-1-5-3-62 4-62 15-1 95-4 104 0q5 5 5 12c-2 12 1 43-2 50l-2 1h-21c-5-13-10-27-24-32q-9-3-18 1c-12 6-17 19-21 31zM637 2604l-3-1c-2-7-2-51-1-58q9-7 19-6c15 1 80-1 90 3 5 9 4 51 3 60l-3 2h-22c-14-46-47-45-62 0zM471 2604l-3-2c-2-7-5-63 8-62 29 2 70-4 98 0q6 5 6 13c0 8 1 45-2 50l-1 1h-22c-3-12-9-26-22-32q-8-3-18 0-18 12-22 32zM1856 2604c-4-5-3-21-2-27 0-11-2-25 2-34 8-6 88-3 103-3l4 3c5 9 3 48 3 58l-3 3h-22c-6-17-17-42-42-31-11 5-17 20-21 31z"/><path fill="#33672e" d="M3 1866c3-11 1-26 2-38 0 6-1 30 2 34l4-3c14 1 27 0 39 7 8 18 5 52 5 73 0 38 4 81-4 118-2 12-33 9-44 11l-1-3c-1 5-2 5-1 9l-2-13-1-4c10-1 39 2 45-4 4-14 4-168 0-181-7-4-35-3-45-3zM1850 2603c0-13-1-53 3-63 9-8 36-8 48-6 12 3 23-8 31-1-3 2-2 1-7 2 7 0 8 1 13-3 32-4 31 8 32 36 0 9-3 27 2 34l9 1 1 1h-19l3-3c0-10 2-49-3-58l-4-3c-15 0-95-3-103 3-4 9-2 23-2 34-1 6-2 22 2 27h-39c8-2 24-1 33-1M465 2604c0-17-4-54 4-66 19-10 82-5 105-6 15-1 10 60 9 71q9-1 16 1h-22l1-1c3-5 2-42 2-50q0-8-6-13c-28-4-69 2-98 0-13-1-10 55-8 62l3 2zM1271 2604q3-2 8-2c4-18-10-51 6-67l5 1-1-3c9-3 88-1 101 0l9 9-2 24c0-21-1-30-25-27l-27 1c-10 0-53-2-58 2-5 7-6 55-2 61l2 1zM795 2603c-1-14-3-52 1-63q1-4 5-5c11-5 92-5 103 0q4 2 5 6c-15-5-88-1-107 1-6 1-4 53-3 61l2 1h-22c4-2 12-1 16-1M302 2542c2-13 38-11 48-11q28-1 56 2 6 3 8 9v4q-2-4-5-6h-27c-16 1-69-4-80 2M1963 6c8-4 30 4 46-3q5 2 5 7c0 9 1 36-1 44l-1-2c0-10 2-32-4-41-1-3-17-5-20-3v2l6 2c-6 0-15-2-19 1-4 8 0 24 0 36l-10 17c-1-16 2-43 0-59zM1071 5q3-2 5-1c9 3 43-1 47 0l-1 43c-10-11 11-49-40-34-6 2-9 13-10 18zM412 5c24 2 55-2 78 1h-23l-1 48c-3-5 2-34-4-41-8-2-33 0-45 0-1 6-1 39-3 41-1-12 2-41-2-49M2127 2553c2 7 1 32 2 42 14 3 23-2 37 0h6l2-6v15h-51l2-1c3-7 0-38 2-50M1778 5h61l37 1h-25c0 9 1 45-1 50-4-7 1-31-1-41l-11-5h-2 1c-17-5-49 2-59-5"/><path fill="#c9ddc9" d="m827 117-2-2c6-3 228-1 253-1h429c23 0 29-5 53-2v1l-10 1h293c49 0 108-2 157 0-7 2-19 2-24 3 47 0 580-1 585 1 7 11 2 121 4 143 1 6 0 36-1 43v-4l1 44-1 172v1275c0 102 3 216 0 318-8 0-52 1-56-2h-273v206l1 53c-1 40-2 90 0 129q-2 3-5 4c-15-5-63-1-80-1h-206l-567 1-41-2h-113c-5 0-16 0-21 2h5c-8 1-12 2-20 1l12-2-28 1h5c-20 2-29-1-48-2-13-1-30 2-43 1l-12-3h-46l-2 2c-153 2-425-2-566 1v1h12l1 1-2 2c-12-1-58 1-65-3 5-2 5 0 11-2-7-2-52 3-59-2H76V117z"/><path fill="#33672e" d="M2561 118c7 11 2 121 4 143 1 6 0 36-1 43v-4l1 44-1 172v1275c0 102 3 216 0 318-8 0-52 1-56-2h52V182c0-18-1-48 1-64M827 117l-2-2c6-3 228-1 253-1h429c23 0 29-5 53-2v1l-10 1h293c49 0 108-2 157 0-7 2-19 2-24 3H827M2236 2495q-2 3-5 4c-15-5-63-1-80-1h-206l-567 1-41-2h-113c-5 0-16 0-21 2h5c-8 1-12 2-20 1l12-2-28 1h5c-20 2-29-1-48-2-13-1-30 2-43 1l-12-3h1162M358 2495c41-2 95 0 136 0h449c20 0 68-2 85 0l-2 2c-153 2-425-2-566 1v1h12l1 1-2 2c-12-1-58 1-65-3 5-2 5 0 11-2-7-2-52 3-59-2"/><path fill="#d6d6d6" d="m151 119 5 2c6 6 31-1 34 0 17 5 14 1 29 0 31-3 62 1 93-1h33-1l21 1h-3 37-1 12-3c15-1 25 1 38 1h62l1-2-2-1h7l-2 3 2 1 1-1c9-4 11-3 20-2h-3c23 2 51-1 74 2 5 1 21-2 29-2l148 1 31 2-9-3-1 1-5-1 37-1v2q-2 2-7 2l-1 1q19 0 36-3c2-1 10 3 11 2 17-8 30 0 47 1l31-3 37 1c9 1 20-2 30 0 3 0 2 2 7 1l-1-2 1-1c18-3 50 2 69 2h2-1 12l-1-2q8-2 18-1l-14 3 58-2h184l-4 2 45-1c89 2 181-3 269 0l-2-1c18 0 43 0 61 2 11-8 35-1 48-1l28-1h157c10 0 62-2 68 1l2 1h5c14-7 40 2 53 0 19-3 19-5 39-2 13 2 33-1 48 1 12 0 26 4 37 3q116-5 231-2c17 0 37-6 55-2 12 3 20-1 31 1 14 4 25-2 31-2l-3 2c0 4 5 2 6 9l-2 142v395l2 481q-3 321-1 644 1 109-1 217l1 76q1 9-6 16l2 1 1 1c-8 2-69 1-81 1 2-2 14-3 18-3h-25v1l5 2c-13 1-57-11-66-2l6 1-38 1-88-1c-5-3-5-3-11-4q-3 0-3 2 6 0 10 3c-10-1-39-1-47 1l-2 3 1 250c0 12 1 34-1 45-2 14 2 79-3 85l-32 1h-100q-23 3-48 2h3l-27-1 7 1h-21 6c-17-2-40-1-57 0h1-19 1c-22-3-35 0-55-1h-75l9 1-39-1 5 1h-19l3-1-43-1c-12-1-25 2-39 1h2c-11-2-58-1-73-1h-196c-15 0-22-1-37 1 1 2 81 1 92 1-6 2-97 1-107 0h9c-15-3-36-1-51-2q-51-3-102 2h1l-23 1 6-1v-1c-10-5-12 2-20 2l-36-3q-8 2-15 2c-15-4-36-3-51-2q-11 2-22 2v-3c-4-1-22 0-27 1l1 1 9 1c-14 2-38 1-53 1h-81l35-1v-1c-18 1-149-3-155 0 3 2 18 1 22 1-3 3-46-2-54-2l3 3c-29-2-49-5-79-3v2h54c-20 2-63 1-84 0h26v-2l-23-1c-5 0-5 0-8 3l-19 1 4-1c-5-4-38-1-47-2-17 1-37-2-54-1q-47 3-94 2-21 0-42 1l-61-3c-25 5-44 5-70 3l3-1c-33-3-67 0-101-2q-11 0-23 3h2c-4 2-28 1-34 1l19-1c-12-2-46 2-55-3-2-24-1-54-1-78l-1-120 1-343 1-791-2-750V219c0-30-1-66 1-96 25-3 45 0 71-4"/><path fill="#676563" d="M423 1781h17v27h33l34-1v-26h49v53h18c0-9-2-47 2-52l12-1c3 5 2 44 2 53h34l-1 26-34 1v26l18-1v26h16v78h17v53h32l1 26h-50v26l49 1v130h-98v-26h-18v-25h18v-28h-34v-26h-16v27l-17-1 1-51h15v-52h-15v-26h-18v25h-33v-25l-17 1v-54h-17l1 26h-18l1-71-3-8-12 1c-2 7-2 42-2 51h-32l-1-25h17v-28l-17 1v-25h-33v25h-50v105l-17 1v-131h50l1-53h16v26h33v27l17-1v-25q8-2 14 0 3 4 3 9v-10h16v-52h17z"/><path fill="#d6d6d6" d="M523 1781v53h17v53h16v26l18-1v79h-35v-26h18v-27h-17v-26h-16v-26h-17v-26h-34v-52l34-1v-26z"/><path fill="#676563" d="M473 1834h17v26h-17zM508 1860c0-8-3-18 1-24q6-3 14-2v26z"/><path fill="#d6d6d6" d="M423 1781h17v27h33v52l-16-1v54l17-1v26h-51v-26h17v-25l-50-1 1-16v-10h16v-52h17z"/><path fill="#676563" d="M457 1808h16v26h-16zM424 1809h16v52h-16z"/><path fill="#d6d6d6" d="M524 1912v26h-33v-26zM589 1912h18v26h-18zM556 1861h18v26h-18zM473 1860h17v27h-17zM541 2018h50l-1 77h-49z"/><path fill="#676563" d="M556 2043h18v26h-18z"/><path fill="#d6d6d6" d="M607 2121h17v53l-35-1v-26c7 0 13 2 18-2v-24M457 1965l33-1v26q-8-1-15 1c-2 4-1 4-2 10v17h-16zM640 2147h16v53h-33l1-26h17zM590 1964h17v27h17v26h-17v-26h-18z"/><path fill="#676563" d="M258 2043h116c0 18 1 178-1 183H257v-118z"/><path fill="#d6d6d6" d="M274 2069h83v131h-83v-131"/><path fill="#676563" d="M291 2096h49c0 17 1 64-1 79l-48-1zM258 1572h115v182H258z"/><path fill="#d6d6d6" d="M274 1597h84l-1 131-83-1z"/><path fill="#676563" d="m291 1624 49 1v78h-50zM557 1572h115v182H557z"/><path fill="#d6d6d6" d="M573 1597h84l-1 130c-20 2-62 1-83 1z"/><path fill="#676563" d="m591 1624 48 1v78h-48zM1501 535c61-9 59 109 57 147-2 32-8 81-41 94q-32 2-44-29c-20-54-18-126-1-180q7-23 29-32"/><path fill="#d6d6d6" d="M1502 561c20-2 29 15 32 32 6 35 14 135-19 155-37 9-37-73-36-95 0-26-1-75 23-92"/><path fill="#676563" d="M610 536q27 0 53 1c60 8 63 119 14 142-11 5-43 2-48 5v88h-19z"/><path fill="#d6d6d6" d="M629 562c12 0 34-1 44 6 24 16 22 56 8 78-15 15-31 11-52 11z"/><path fill="#676563" d="M490 1598h33v26h17v130h-16v-25h-17v25h1l15 1v26h-16v26l-34 1h-16v-53h-17v-52h34v-26h-17v-53h16v27h18z"/><path fill="#d6d6d6" d="m440 1728 17 1v26l17-1-1-25h17v25h18l15 1v26h-16v26l-34 1h-16v-53h-17z"/><path fill="#676563" d="m508 1754 15 1v26h-16v26l-34 1v-27h34z"/><path fill="#d6d6d6" d="M491 1651h17v26h16v26l-34-1z"/><path fill="#676563" d="M1992 639c33 1 109-11 102 42q-4 17-19 25l4 1c23 7 23 34 17 53-18 29-73 21-104 21V639"/><path fill="#d6d6d6" d="M2021 720c19 0 63-3 43 30-11 7-29 5-43 5zM2021 664c17 0 58-1 36 28-9 5-25 4-36 4z"/><path fill="#676563" d="M1175 536h16l20 50 36 91 55-138c2-4 11-3 14 0 2 8 1 58 1 71v162h-18V593c-8 16-41 113-47 117q-4 3-9 2c-9-7-39-100-50-119l1 180-18-1zM457 2069h17l-1 26h17v53h17v27h33v26h-50v-26l-33-1v26h17v26h-83v-131h33v-26h16v69l-1 8c-6 3-23 1-32 1v53l33 1v-52h34v-28h-16zM259 537h93v26h-74v76h67l-1 27h-66v80l76-1v27h-94zM1624 534c32 1 44 18 53 46l-15 15c-5-15-14-33-32-35-21-2-32 13-33 32-5 45 45 42 68 68 21 25 19 83-7 106q-18 14-41 9c-28-6-39-32-46-56l16-14c8 23 16 48 47 44 24-3 28-32 24-52-6-28-36-32-57-45-31-20-30-72-10-100q12-17 33-18M390 1651h51v26l-17-1v52h16v27h17v53h-17v-27h-17l1 27h-17v52h-16v10q0-5-3-9-6-2-14 0l-1-1h-15l-1-26 16-1h1v-26h-17v-26h50c0-6-2-23 3-27l-2-1q-8 2-18 1l1-52h17l-1-25h-17z"/><path fill="#d6d6d6" d="M373 1833zl16 1 1 26v10q0-5-3-9-6-2-14 0l-1-1h-15l-1-26z"/><path fill="#676563" d="M373 1833c2 6 2 23 0 27h-15l-1-26z"/><path fill="#d6d6d6" d="M407 1729h17q1 12-1 23-6 5-13 2l-2-1z"/><path fill="#676563" d="M2356 639h97v27h-68v29h62v26c-9 0-55-2-62 1v33l70-1v27h-98zM1883 639h96v27h-66v29h60v25l-60 1v34h68v26h-99c1-46-1-96 1-142M1383 535c59-4 63 80 32 114q15 10 21 27 10 36-4 71c-10 23-36 37-59 25-18-9-26-30-31-48l15-13q5 15 13 28c10 10 26 16 38 5 17-16 18-56 1-73-9-9-22-8-34-8v-26l22-1c25-17 25-67-2-75q-8-2-16 3c-12 8-16 24-19 37l-15-15c6-24 12-43 38-51M974 535h5c53-4 59 80 28 113q14 10 21 27 12 38-5 74c-10 22-36 35-59 23-17-9-25-30-30-48 6-7 8-8 15-13 4 11 7 17 13 27q8 11 21 12c34 0 38-61 18-79-10-10-22-8-34-8v-26c6 0 17 1 23-2 19-5 23-46 13-60-28-38-45 3-51 26l-14-15c5-23 11-43 36-51M1092 535h2c45-3 53 48 46 82q-3 18-17 32 14 10 20 25c9 23 7 51-3 73-10 24-36 37-59 25-18-10-26-31-31-49l15-13c4 12 7 19 13 29q9 11 22 11c34-1 37-62 17-80-10-9-22-7-34-7v-26l23-1c25-17 25-67-2-74q-9-3-16 2c-13 8-16 24-20 37l-14-15c5-23 12-44 38-51M526 535q42-3 51 40c12 46-10 81-32 120l-31 52 71-1 1 26h-87q-7 2-11-3c-7-28 67-116 71-151 2-18 2-52-20-57-23-5-31 26-35 43-8-6-10-8-16-15 5-24 13-45 38-54M410 535q41-3 51 39c13 46-9 83-32 121l-31 52 71-1 1 26h-95c-11-12 10-43 17-54 16-29 36-58 49-89 6-17 5-39-2-55-6-11-18-18-30-10-14 9-17 26-20 40q-10-7-16-16c5-23 13-44 37-53M874 536h19c-14 47-38 111-55 158h46v-69h17v69q12-1 21 2c3 4 2 5 2 11s1 6-2 11q-9 2-21 1v53h-17v-53h-68c-1-26 12-52 21-77zM1584 1839c24-1 57-5 57 30q1 16-7 29c-4 7 7 13 9 21q6 20-3 40c-13 18-36 12-56 12z"/><path fill="#d6d6d6" d="M1594 1909c11 0 23-1 33 5 13 8 8 28 1 39-8 6-23 4-34 4zM1594 1852q12-1 24 1c17 6 14 25 8 39-9 7-20 5-32 5z"/><path fill="#676563" d="M2194 639h35l-32 55c-24 40-18 40-18 88h-30c0-10 1-47-1-55-4-15-25-46-33-61-4-6-13-20-14-26h36l28 58c5-13 21-46 29-59M2236 639h110l-1 30h-40v75l1 38h-31V669h-39zM1564 2093c37-5 35 48 36 73 0 19-3 53-22 63-27 5-33-27-34-47-1-28-4-71 20-89"/><path fill="#d6d6d6" d="M1567 2108c25-1 21 42 22 59 0 15-2 37-14 48q-5 1-10-3c-16-20-15-88 2-104"/><path fill="#676563" d="M1372 2092c38 6 32 97 19 124q-5 12-18 15-20-5-24-27c-6-27-13-104 23-112"/><path fill="#d6d6d6" d="M1368 2108q14-1 17 12c7 23 9 77-8 94-21 2-21-33-21-48-1-18-1-45 12-58"/><path fill="#676563" d="M1106 2092c40 3 34 98 22 124q-5 11-17 14c-34-1-31-58-30-81 0-20 4-51 25-57"/><path fill="#d6d6d6" d="M1104 2108c24-1 21 38 22 55 0 16-2 40-14 51-20 1-20-32-20-46-1-18-1-47 12-60"/><path fill="#676563" d="M1436 2092q19 1 25 21c8 27 14 105-19 117q-17 0-23-15c-11-29-16-108 17-123"/><path fill="#d6d6d6" d="M1435 2108q14-1 17 14c6 22 9 76-9 93-21 0-21-36-21-51 0-17 0-44 13-56"/><path fill="#676563" d="M1502 2092c42 1 34 97 23 123q-5 12-17 15c-18 0-26-18-28-34-3-28-9-89 22-104"/><path fill="#d6d6d6" d="M1501 2108c25 0 21 44 21 61 1 14-2 36-13 46-22-1-20-37-21-53 0-17 1-42 13-54"/><path fill="#676563" d="M1039 2091c32 0 35 43 18 64 19 20 20 63-10 75-33 1-35-34-29-59 0-2 10-15 9-16-10-22-16-51 12-64"/><path fill="#d6d6d6" d="M1038 2163c27-1 28 39 9 52-27 0-26-38-9-52M1038 2107c23-3 22 26 10 40-23 4-23-26-10-40"/><path fill="#676563" d="M922 1617c17-3 17 2 26 13q0-8 5-13 3 0 4 2c1 3 2 37 1 41-2 15 3 83-2 93-3 3-1 2-5 2-4-4-3-2-3-8v-46c-36 57-69-54-26-84"/><path fill="#d6d6d6" d="M925 1631c24-2 24 23 24 42q0 17-13 29c-30 1-28-55-11-71"/><path fill="#676563" d="m640 1780 16 1v53h16v78h-16v26h17v53h-17v-27h-16l1-52h-17v-26l32 1v-26h-16zM1277 1659c5-13 25-69 31-78 5-1 3-2 8 0 3 17-2 107 1 130q-1 3-4 4c-5 0-3 1-6-2-2-16-1-62-1-80v-22c-7 18-21 60-29 75-8-14-24-60-31-76 1 11 2 100-1 105-5 0-3 0-7-2-4-10-2-26-2-37v-97l9 1c8 16 26 64 32 79M780 1916c6-14 26-70 31-78h8c2 9 2 128-1 132l-4 3c-7-8-5-71-5-86v-19c-4 12-21 67-30 68-7-6-24-55-29-68 2 26-1 53 1 79 0 8 1 21-5 27l-4-1c-5-8-2-118-2-136h8c6 8 27 67 32 79M1179 2092l9 1c1 9-22 47-20 54 23-6 30 7 34 28q4 27-12 50c-25 18-42-13-42-36 1-34 18-66 31-97"/><path fill="#d6d6d6" d="M1171 2159c28-1 26 43 8 56-26 0-25-42-8-56"/><path fill="#535350" d="M2384 302c41-2 47 69 12 90-44 3-49-71-12-90"/><path fill="#d6d6d6" d="M2383 308c37-5 40 61 12 77-35 5-41-58-12-77"/><path fill="#535350" d="M2377 320c8-1 17-2 23 5 3 9-3 17-4 24-1 4 7 15 7 21l-3 2c-4-2-3-1-5-6s-4-13-9-15l-3 1v18c-3 2-2 2-5 1-3-4-2-44-1-51"/><path fill="#d6d6d6" d="M2383 326c6 1 7 1 11 5q1 6-1 11c-5 1-5 2-9 0q-4-7-1-16"/><path fill="#676563" d="M862 2093q4-1 8 1l2 6c-1 15 2 122-2 127-8 0-9-2-13-10l-41-94 1 105q-6 1-10-2c-1-13-2-124 0-130q4-2 7 0c7 7 42 90 48 104zM1991 600h68a6480 6480 0 0 0 230 0h56c2 4 2 4 1 9h-249c-26 0-81 2-105 0-2-4-1-3-1-9M1391 1579q5-1 10 1c1 10 1 130-1 134h-6l-3-3v-60h-44v60q0 3-2 4c-5 0-5 0-8-2v-39c1-15-3-87 2-94 4-1 2-1 6 1 4 9 2 44 2 56l44-1zM855 1874c26-2 31 18 31 40 0 10 2 53-3 58h-3c-4-3-2-1-4-7h-1c-16 12-26 13-36-6-8-31 5-48 37-42 0-10 0-24-10-29-11-1-13 7-23 11l-2-1c-3-11 6-19 14-24"/><path fill="#d6d6d6" d="M857 1927q9-2 17 4c7 9-1 22-8 28-22 3-24-21-9-32"/><path fill="#676563" d="M860 1617c32-5 33 29 33 52h-42c-6 12 14 53 33 21q6 3 6 8c-5 20-30 26-41 7a84 84 0 0 1-8-59q3-19 19-29"/><path fill="#d6d6d6" d="M865 1629c12 2 21 15 16 26-5 3-5 2-11 2h-21l2-5c2-11 4-17 14-23"/><path fill="#676563" d="M1365 1874c31-3 32 29 33 52l-42 1c-7 12 14 52 32 20q7 4 7 9c-18 37-50 10-51-21-1-24-2-47 21-61"/><path fill="#d6d6d6" d="M1367 1888c9-1 11 0 16 8q8 8 3 17-6 2-13 1l-19 1c3-14 3-18 13-27"/><path fill="#676563" d="M1091 1874q7-1 14 1c22 14 14 51 16 73 0 6 0 19-2 24-6 0-3 1-7-2l-1-6v-1h-1c-15 13-24 18-36-3q-13-50 37-44c0-9-1-24-11-29-11 0-13 8-23 12l-2-1c-2-11 6-19 16-24"/><path fill="#d6d6d6" d="m1092 1927 19 1v8c-1 11-2 15-10 23-22 3-25-21-9-32"/><path fill="#676563" d="M2269 310c8 4 15 17 19 24q25 47 25 100c1 39-10 105-38 134-16-8 3-26 8-37a219 219 0 0 0 2-173c-6-15-12-21-19-36q-1-6 3-12M1515 1838c11 0 44-1 53 1q2 5 1 13h-43v44h38v15h-38l1 22-1 24h42c2 3 2 11 0 13-9 2-42 1-53 1zM1792 1837h53v15h-43v44c12 0 31-4 38 6 0 4 1 4-1 8-9 2-27 1-37 1v46c11 0 37-4 43 4v8c-5 4-44 2-53 2zM760 2092c27-1 37 28 27 34-11-2-7-18-20-22-14 1-21 13-20 25 2 19 23 22 36 33 17 15 12 45-1 61-5 7-16 7-23 6-19-6-21-15-28-33l10-8c4 13 9 28 26 26 12-1 18-19 15-28-3-13-18-20-29-25-20-11-21-39-11-57q6-10 18-12M2067 310c14 10-5 28-10 41a226 226 0 0 0-2 179c4 8 13 19 14 29q0 5-4 9c-23-13-38-91-39-116-2-45 10-108 41-142M324 1912h17v26l-16 1v25l32 1v26h-67l1-53h33z"/><path fill="#676563" d="M306 1964h19l32 1v26h-50z"/><path fill="#d6d6d6" d="m306 1964 18 1v26h-17z"/><path fill="#676563" d="M257 1790c1-5 0-5 3-8 15-2 62-1 80-1v52l-16 1v-26h-50v26h-17zM1288 2093l41-1v16h-32c-1 9-3 29-1 37l3 1c11-6 16-7 24 5 10 13 12 34 9 50-4 20-14 32-35 28-11-7-13-14-17-25l9-7c4 8 7 17 17 19 21-2 20-48 6-58-11-8-17 8-21 12q-5-2-8-6zM1192 1577c25 3 32 33 24 51-12 27-2 15 4 38q4 20-7 38c-20 33-57-5-44-23h3q6 5 8 13 7 9 17 7c12-4 16-25 12-35q-8-13-23-16c-2-18 9-8 18-22 8-11 2-29-9-35-12-1-17 13-20 22l-8-8c5-16 8-25 25-30M1124 1577c36 2 30 42 19 65 0 4 6 12 7 15 19 35-22 90-47 41-3-5-4-16 4-17q5 4 6 11c22 28 42-18 24-33-6-6-12-6-18-10 0-14 3-9 13-15 5-2 11-10 9-16-8-38-18-32-32-6l-2 1c-9-9-6-14 1-23q6-10 16-13M1236 2092q21-1 27 19c9 36-16 72-34 101 11 1 33-3 39 5q1 5-1 9c-8 3-42 1-52 1-4-19 29-58 36-79 11-36-16-61-30-15l-8-7c3-17 6-27 23-34M740 1579h52v16h-41v46h36v15h-36c0 9 0 54-2 58h-7c-5-7-2-25-2-35zM1064 1580h9l1 2c-5 20-22 67-29 88h25c0-7-1-33 1-37 5-2 2-2 7-1 7 10-2 31 4 38 10 0 10-1 12 7l-1 5q-4 3-9 2h-1c-8 4 2 20-5 29h-7c-2-4-1-23-1-29-9 0-29 1-37-1-4-9 26-88 31-103"/><path fill="url(#a)" d="M2235 344q3 1 5 3c36 46 39 146-1 191-10-4-5-12-2-19l11-24 7-24c7-44-2-78-23-115-2-3 2-9 3-12"/><path fill="#676563" d="M1647 1838h9c8 4 23 53 26 63 4-11 18-56 24-62 5-1 3-2 7 0 1 10-14 45-18 56-8 21-9 28-8 51q2 13-1 24-3 3-8 2c-4-4 1-46-3-59q-15-37-28-75M969 1874q6-1 9 2c3 15-5 75 8 80 37 16 18-68 25-81 5-1 3-1 7 1q3 11 1 23v71c-3 2-2 1-6 1-4-4-3-4-3-11l-4 5c-19 19-35 3-37-19zM1239 1874l9 1c5 13-10 90 18 83 25-6 8-69 15-82 5-2 2-2 7-1 2 4 1 24 1 30 0 9 2 61-2 66h-5l-2-2v-9l-6 8c-17 14-32 0-34-19q-3-37-1-75M929 1873q19 2 22 21c2 10 3 72 0 78l-3 1c-13-11 8-111-29-80-12 21-5 50-6 74-1 4 0 2-3 5q-4 1-7-2c-2-9-1-82 0-94 4-2 2-1 6-1 3 4 1 7 3 12 8-6 3-10 17-14M2101 344c3 2 8 6 6 10-27 48-35 100-13 152 7 13 16 18 7 31h-1c-42-47-37-151 1-193M1717 1837c14 1 52-1 62 1q5 7 0 13-12 2-24 1v89l-1 30-1 1c-5 0-3 1-7-2-5-8-2-23-2-33v-84h-27z"/><path fill="url(#b)" d="M2162 510q9-2 14 3c4 10 9 64 10 76q-3 2-9 1l-25 1c1-16 5-69 10-81"/><path fill="#676563" d="M1417 1618c9 0 38-1 44 1 3 9-27 69-32 81 12 0 23-3 33 2 3 4 2 4 2 10-3 3-45 2-48-1 0-12 26-64 33-79-12 0-21 2-30-2-3-5-2-5-2-12M2164 410c30-1 33 48 10 63-31 2-33-47-10-63M1157 1874c18-1 36 16 21 25q-5-6-12-11c-36-4-22 100 9 63l2-4h3c8 11-4 31-19 27-30-8-30-51-24-75q4-17 20-25M1059 1828q12 0 12 12-2 4-5 5c-6-1-7-3-12 1q-6 13-4 29 8-1 15 1c1 5 2 6 1 11q-5 3-14 3c-4 5-2 60-2 69v10c-3 3-1 2-7 2l-2-1c-2-11 1-74-2-80l-7-3q-4-7 0-12l7-1c6-17-4-38 20-46M727 663h72q1 13-1 26h-71zM1199 1847c7 1 6-1 9 3q2 12 1 25c8 0 15-2 19 6-3 10-11 8-19 8v53q-1 12 8 17c10-2 9-3 13 5q-1 4-3 6c-42 24-23-63-28-79-1-5-5 1-10-4l1-10c14-4 9-17 9-30M982 2092l3 1 2 2c-2 32 2 102-1 130-3 3-2 2-7 2-5-5-3-24-3-32v-83l-21 22v-17zM2131 372q5 2 5 8c-4 17-13 31-17 49q-4 29 9 55c5 10 11 16 4 27l-4-2c-31-33-26-106 3-137M1641 2093l6 2c2 11 1 33 1 45v87h-11v-115l-21 22 1-17z"/><path fill="url(#c)" d="m2206 372 5 3c26 31 27 110-3 137q-5-3-5-9c3-15 14-30 17-47 4-27-7-49-17-74q-1-5 3-10"/><path fill="#676563" d="m825 1615 8 3c3 4 3 4 3 9-2 4 0 2-4 5h-10c-18 14-6 60-11 82q-3 2-9 2v-93q0-4 5-6l2 1c3 5 1 10 3 12 4-8 5-10 13-15M1331 1872c6 2 8 1 10 8-3 11-12 8-17 13-13 11-5 58-8 78q-4 2-10 0c1-15 0-87 2-95h7q2 6 1 14c4-9 6-12 15-18M1431 1874c5-1 6-1 11 1q6 7-2 14l-10 2c-18 13-5 60-11 79q-2 2-6 3c-4-5-5-92 2-98h2c3 4 1 7 3 13 4-7 5-9 11-14M390 2016h17v53l-17 1zM490 2043h17v51h-17zM424 1572l16 1v51l-16 1zM357 1991h17v26h-17zM307 1991h17v26h-17zM607 1780h16v27h-16zM275 1834h16v27h-16zM457 1572c8 0 10-1 15 3 3 6 1 17 1 25h-16zM391 1598c7-1 9-2 15 2q3 12 1 25h-16zM540 2201h16v25h-16zM524 1572q9-1 14 3 3 11 2 24h-4c-17 1-13-14-12-27M1458 1951c12 5 9 14 4 23-14-2-11-15-4-23M1456 1874l5 1c8 6 5 14 2 21l-7-1q-7-10 0-21M894 2130l6 2q7 9 0 20c-13 2-9-15-6-22M894 2208c13 2 11 13 6 22l-6-2q-7-9 0-20M980 1616l3 1q5 3 5 8 1 9-5 15-15-10-3-24M979 1695l5 1q8 11 0 21c-12-2-10-14-5-22"/><path fill="#b68915" d="M2407 2210q-2-14 3-27c7-2 64-1 75-1l1 19v7c12 9 43-10 50 34 2 14-1 39 1 52q5 3 12 2 4 6 2 14c-2 19 3 78-1 94q-4 3-13 2c0 28 7 79-31 82l-21 1v30h-78l1-31-34-2c-29-26-11-70-18-80q-9 1-15-3v-62c0-9-1-35 1-43q5-3 12-2l3-2c6-28-9-60 21-82z"/><path fill="#c9ddc9" d="M2408 2488c12 0 67-1 77 1v30h-78z"/><path fill="url(#d)" d="M2407 2210q-2-14 3-27c7-2 64-1 75-1l1 19q0 5-3 9c-13 2-60 0-76 0"/><path fill="#c9ddc9" d="M2356 2406q-9 1-15-3v-62c0-9-1-35 1-43q5-3 12-2l3 1c1 6 2 102 0 108zM2537 2318q-2-11 1-20c4-3 4-2 11-2q4 6 2 14c-2 19 3 78-1 94q-4 3-13 2c-2-9-1-75 0-88"/><path fill="#d6d6d6" d="M2537 2318q1-5 4-7 2 7 3 14c6 31-2 53-7 81-2-9-1-75 0-88"/><path fill="#ddb648" d="M2439 2238c42-4 67 37 76 72 10 44 4 96-26 132q-14 15-33 20c-97 7-109-199-17-224"/><path fill="#b68915" d="M2446 2255c84 9 82 179 2 190-80-8-82-177-2-190"/><path fill="#ddb648" d="M2447 2327c21 5 20 35 2 46-21-6-21-35-2-46"/><path fill="#33672e" d="M2235 2313c18 3 86 3 104 1v71l-102-1-1-18z"/></svg>