<svg xmlns="http://www.w3.org/2000/svg" width="3663" height="3630" preserveAspectRatio="none" style="display:block" viewBox="0 0 3630 3630"><path fill="#1b3e63" d="m2437 3 52 1c18 54 56 85 116 67 32-10 47-38 56-68h157l52 1c26 100 150 94 171-1h53c118 1 244-2 360 1 44-1 120-11 152 22q15 16 20 39 1 175 1 351l-1 3 1 112-1 53c-28 7-50 14-66 41a86 86 0 0 0 67 133c0 16 1 38-1 54l1 99v54c-28 6-48 12-65 37a89 89 0 0 0-13 68c9 41 38 62 77 69l1 54v98l-1 54c-27 6-48 14-65 39a89 89 0 0 0 26 122q19 11 39 14v54l1 97v55c-28 6-48 13-65 38a86 86 0 0 0 24 121c14 9 24 12 40 16l1 54v96l-1 56c-53 10-90 49-78 107q8 34 39 53c14 9 23 11 39 14v56l1 96-1 55c-51 10-89 47-78 102q7 35 36 56 19 12 42 16l1 53v99l-1 55c-53 10-91 49-78 107q8 34 39 53c14 8 23 10 40 12v305c0 40 1 93-1 132 2 46 10 124-46 142-29 11-102 7-136 7h-305l-53-1c-21 2-31 2-51-2-8-37-27-68-67-78q-31-7-60 9c-28 17-36 40-43 69q-28 5-55 2c-11 1-89 2-99-1l-52-1c-9-35-24-63-60-75q-33-11-63 4c-32 16-41 40-50 71-16 0-39 0-54 2-8 2-90 2-99-1-22 1-30 4-53-1q-3-15-9-31c-14-23-28-39-56-46q-34-9-64 10c-26 17-35 38-42 67q-24 6-49 2a1306 1306 0 0 1-158-2q-2-16-10-33a88 88 0 0 0-55-44q-33-9-63 9c-27 16-36 39-43 68a928 928 0 0 1-154 1c-21 2-32 3-53-1-5-27-14-48-38-64a83 83 0 0 0-117 23q-13 19-15 41-25 5-51 2c-9 1-92 2-102-1l-53-1-8-25a84 84 0 0 0-151-14c-8 14-11 24-15 39l-53 1c-8 3-92 2-104 1-6 1-44 2-45-2-21-57-53-92-119-74-38 10-42 43-57 73-3 6-43 3-50 3-18 2-54 1-74 1H169c-28 0-94 3-116-7l-10-4a81 81 0 0 1-36-48c-12-46 1-192-4-246-1-17 0-222 2-227 0-26-3-22 1-54q20-2 36-11 31-18 40-52 9-36-10-69c-16-26-38-35-66-41-4-27 0-32-1-54a703 703 0 0 1 0-105c-2-17-1-30 1-47l28-9a86 86 0 0 0 8-153c-13-7-22-9-36-13-3-24-2-29-1-54-3-6-2-86 0-97 1-6-1-20-1-28 0-10 0-16 2-27 14-3 22-5 35-13q31-17 40-53c15-58-22-96-75-109-4-27 0-35-1-55-3-9-3-86 0-96 1-20-2-32 1-56 14-2 21-4 34-11q31-18 41-52c9-34-2-68-28-90-16-12-29-16-47-21-4-24-2-30-1-54-3-5-2-87 0-96 1-13-3-30 1-55q18-4 35-12c74-52 50-145-35-163-3-25-2-29-1-54-3-7-2-89 0-98 1-20-2-32 1-55q22-3 40-15 29-21 36-55c10-54-24-94-76-103-4-29 0-33-1-54a667 667 0 0 1 0-106c-2-18-1-30 1-47 84-18 110-111 35-161-9-7-24-10-35-13-4-26-1-31-1-53-4-15-2-80-2-98V130l1-62a73 73 0 0 1 24-44C58-6 108 5 147 3l64 1q164 0 326-1h53c28 102 151 94 170 0h210c5 16 7 25 17 39 34 47 111 45 141-6q9-15 13-33h209c13 53 56 84 110 70q33-9 50-40 8-14 11-30h209c16 53 57 86 113 69q32-11 49-41c3-6 7-20 9-28h209c15 54 53 84 111 69 32-8 52-37 60-69h156"/><path fill="#d49d68" d="M5 2051q58 3 98 47 39 45 37 105-5 59-49 98c-27 23-52 31-86 35 1-6-1-20-1-28 0-10 0-16 2-27 14-3 22-5 35-13q31-17 40-53c15-58-22-96-75-109-4-27 0-35-1-55M5 1291c29-1 53 11 77 25 34 29 52 57 57 103 3 27-3 36-6 59-19 44-40 69-87 88-13 6-27 6-41 9 1-13-3-30 1-55q18-4 35-12c74-52 50-145-35-163-3-25-2-29-1-54M5 2433c29-2 64 15 86 33q43 39 48 98 3 42-16 79l-3 7c-32 39-63 64-115 65v-6c-2-17-1-30 1-47l28-9a86 86 0 0 0 8-153c-13-7-22-9-36-13-3-24-2-29-1-54M1303 3626l-4-2c-4-44 37-98 74-119q51-26 105-10c44 13 69 41 90 80 3 9 13 41 9 50-21 2-32 3-53-1-5-27-14-48-38-64a83 83 0 0 0-117 23q-13 19-15 41-25 5-51 2M5 1671c61-1 106 46 128 99l6 29c4 81-50 153-134 156 1-20-2-32 1-56 14-2 21-4 34-11q31-18 41-52c9-34-2-68-28-90-16-12-29-16-47-21-4-24-2-30-1-54M2810 3626c6-46 15-77 54-107a137 137 0 0 1 196 25c15 20 30 55 28 81l-2 1c-21 2-31 2-51-2-8-37-27-68-67-78q-31-7-60 9c-28 17-36 40-43 69q-28 5-55 2M5 2814h2q12 1 24 3 39 9 67 38l19 22c17 31 26 58 22 94q-6 60-54 97c-18 13-58 32-80 27 0-26-3-22 1-54q20-2 36-11 31-18 40-52 9-36-10-69c-16-26-38-35-66-41-4-27 0-32-1-54M5 911a131 131 0 0 1 83 31c59 52 65 122 28 189-27 33-56 57-100 61l-11 1c1-20-2-32 1-55q22-3 40-15 29-21 36-55c10-54-24-94-76-103-4-29 0-33-1-54M640 3496c84-22 158 20 180 105q4 12 1 23l-4 2c-6 1-44 2-45-2-21-57-53-92-119-74-38 10-42 43-57 73-3 6-43 3-50 3l-2-1a141 141 0 0 1 96-129M2082 3547c17-27 50-47 80-54a140 140 0 0 1 171 132c-22 1-30 4-53-1q-3-15-9-31c-14-23-28-39-56-46q-34-9-64 10c-26 17-35 38-42 67q-24 6-49 2l-5-2c-2-23 12-59 27-77"/><path fill="#c89f74" d="M2082 3547c-5 17-17 51-14 67 6 6 25 4 33 1 7-9 4-18 14-31 18-23 39-41 68-46 2 1 30-1 29-1 16 8 35 16 48 28 9 9 12 15 11 28-14-23-28-39-56-46q-34-9-64 10c-26 17-35 38-42 67q-24 6-49 2l-5-2c-2-23 12-59 27-77"/><path fill="#d49d68" d="M5 531q20 3 34 5a142 142 0 0 1 91 187q-21 54-75 78l-16 6q-16 3-34 4v-6c-2-18-1-30 1-47 84-18 110-111 35-161-9-7-24-10-35-13-4-26-1-31-1-53M1680 3626l-3-2c1-36 17-71 43-95a137 137 0 0 1 199 5c18 20 40 62 36 90l-4 2c-20 2-29 1-49-2q-2-16-10-33a88 88 0 0 0-55-44q-33-9-63 9c-27 16-36 39-43 68-20 3-31 3-51 2M3524 2484c34-31 52-48 103-51l-1 55c-51 10-89 47-78 102q7 35 36 56 19 12 42 16l1 53c-42-1-69-15-99-44-50-60-46-125-4-187M2432 3626c4-42 16-75 49-103a138 138 0 0 1 198 16c18 22 33 58 32 86l-52-1c-9-35-24-63-60-75q-33-11-63 4c-32 16-41 40-50 71-16 0-39 0-54 2M3493 1792q24-108 134-121v55c-28 6-48 13-65 38a86 86 0 0 0 24 121c14 9 24 12 40 16l1 54h-2c-88-7-139-78-132-163M3626 2337c-28-3-58-14-81-32q-45-36-52-95a142 142 0 0 1 134-159l-1 56c-53 10-90 49-78 107q8 34 39 53c14 9 23 11 39 14zM3496 2994l-4-30c-4-80 54-146 135-150l-1 55c-53 10-91 49-78 107q8 34 39 53c14 8 23 10 40 12v55c-69-4-107-40-131-102M3627 1291l-1 54c-27 6-48 14-65 39a89 89 0 0 0 26 122q19 11 39 14v54c-174-10-180-270 1-283M921 3625a140 140 0 0 1 235-98q34 32 42 77 1 11 3 21l-53-1-8-25a84 84 0 0 0-151-14c-8 14-11 24-15 39zM3533 571l16-13c28-20 43-25 78-27l-1 53c-28 7-50 14-66 41a86 86 0 0 0 67 133c0 16 1 38-1 54q-44-1-80-29c-29-22-48-56-53-93-6-49 11-82 40-119M3627 911v54c-28 6-48 12-65 37a89 89 0 0 0-13 68c9 41 38 62 77 69l1 54q-51-2-88-36a143 143 0 0 1-7-204q39-40 95-42M760 3h54q-2 43-29 77-36 44-93 50c-82 9-147-45-155-127h53c28 102 151 94 170 0"/><path fill="#c89f74" d="M3041 3h53q-2 48-33 83c-25 27-60 43-97 45-77 4-143-49-146-128l52 1c26 100 150 94 171-1"/><path fill="#d49d68" d="M2829 10c21 2 38-5 45 19 23 76 133 66 163 4q5-12 13-21c12-1 25-4 33 6 1 9-4 21-7 30-51 93-168 103-231 15-9-14-19-36-16-53M917 3h53c5 16 7 25 17 39 34 47 111 45 141-6q9-15 13-33h54c-4 30-9 50-28 74q-33 45-89 53C993 142 927 87 917 3M2437 3l52 1c18 54 56 85 116 67 32-10 47-38 56-68h53q-1 41-27 74c-22 30-56 49-93 53-83 10-148-44-157-127"/><path fill="#c89f74" d="M1521 3h53q-2 45-30 78-38 45-95 50c-79 6-146-48-152-128h53c13 53 56 84 110 70q33-9 50-40 8-14 11-30"/><path fill="#d49d68" d="M1546 8q7 1 17 3 4 7 1 14c-21 74-87 112-161 93-40-10-63-27-82-62-9-19-14-26-14-46 45 0 35-7 53 31 6 13 27 25 39 33 47 29 85-2 118-35l8-24q9-7 21-7M2058 3h52c15 54 53 84 111 69 32-8 52-37 60-69h54q-3 47-34 81-38 43-95 47c-78 5-144-49-148-128M1901 3h53c-4 32-7 49-28 76q-36 44-93 51c-83 10-147-44-156-127h53c16 53 57 86 113 69q32-11 49-41c3-6 7-20 9-28"/><path fill="#213c5a" d="M835 3618c83 1 71 15 89-53 10-36 97-86 134-83 51-1 117 37 140 83 8 16 1 59 31 54 14-2 50 1 59-1 2-3 2-2 2-5-4-18 17-55 29-70 28-34 69-57 114-60 33-4 67 15 94 32 12 7 33 34 38 48 3 7 3 4 3 12-21-39-46-67-90-80q-54-16-105 10c-37 21-78 75-74 119l4 2c-9 1-92 2-102-1q-2-10-3-21-8-45-42-76c-26-26-62-40-98-39a140 140 0 0 0-137 136c-8 3-92 2-104 1l4-2q3-11-1-23c-22-85-96-127-180-105l1-3c29-15 70-8 100 1 32 10 59 39 74 69 12 24 12 34 20 55M139 1799h3c7 18 0 58-10 76-17 30-48 63-80 79-7 3-40 9-38 20 4 19-5 51 0 66 16 10 34 14 50 22 33 17 68 56 77 92 11 42-2 94-22 130-28 50-66 43-106 64-5 2-4 55 0 62 1 2 1 8 5 10 23 12 55 18 76 33a309 309 0 0 1 46 84c11 43 6 63-10 101l-7 5q19-37 16-79-4-59-48-98c-22-18-57-35-86-33-3-6-2-86 0-97a143 143 0 0 0 0-285c-3-9-3-86 0-96 84-3 138-75 134-156M3524 2484l-1-4c4-8 35-40 44-44 12-7 35-7 47-16 3-12 10-66 8-77q-11-5-24-6c-51-11-87-45-102-94-16-48-11-74 9-117 30-65 51-67 112-87l3-73c-6-8-28-12-39-15-42-13-71-50-88-89-5-10-10-61 0-70-7 85 44 156 132 163h2v96a142 142 0 0 0-134 159q7 59 52 95c23 18 53 29 81 32l1 96c-51 3-69 20-103 51M139 2971c6 38-27 87-56 110-12 10-53 26-68 25-4 7-3 80-3 90q1 130-1 262c-1 17-3 98 0 108l-4 2c-12-46 1-192-4-246-1-17 0-222 2-227 22 5 62-14 80-27q48-37 54-97M24 28l4-4C58-6 108 5 147 3l64 1C182 22 70-12 40 28c-11 8-26 25-27 39-9 103-3 209-4 313-1 25-4 124 1 141 11 13 25 4 29 15q-14-2-34-5c-4-15-2-80-2-98V130l1-62q5-23 20-40M3528 2671c30 29 57 43 99 44v99c-81 4-139 70-135 150l4 30c-12-13-10-50-6-67 10-43 37-91 78-111 14-7 40-9 51-17 1-5 2-67-1-68-23-8-88-29-90-60M3454 4c44-1 120-11 152 22q15 16 20 39 1 175 1 351l-1 3-3-15v-5c-4-20 1-39 0-58 0-22-2-40-1-63l1 6v-15l-1 4c-3-28 1-58 0-86-2-38 3-85-5-122-14-72-98-53-151-56-8 0-7 1-12-5M5 2715c52-1 83-26 115-65-8 41-68 69-104 79-3 1-10 63-2 70 9 10 30 11 43 17 16 4 61 46 60 61l-19-22q-28-29-67-38-12-1-24-3H5c-3-9-2-88 0-99M5 1575c14-3 28-3 41-9 47-19 68-44 87-88 3 30-55 86-82 99-4 2-36 5-37 8-5 24 0 50-1 74 0 9 45 17 52 21 25 14 72 60 68 90-22-53-67-100-128-99-3-5-2-87 0-96M5 1193l11-1c44-4 73-28 100-61 3 49-69 63-104 72 0 11-1 64 2 70 8 14 52 12 68 43-24-14-48-26-77-25-3-7-2-89 0-98"/><path fill="#213c5a" d="m3533 571-1-2c17-21 19-26 43-41 16-10 21-4 42-8l2-3 3-87 1-26 3 15 1 112c-35 2-50 7-78 27zM5 811q18 0 34-4l-2 3c-5 6-23 8-25 11l1 72c11 8 15 9 19 21-12-3-15-3-27-3-3-8-3-92 0-100M3580 3620c2-8 40-46 42-65 1-15-3-68 4-77 2 46 10 124-46 142M7 3568l4-2c12 16 22 36 37 47 5 3 4 2 5 7l-10-4a81 81 0 0 1-36-48"/><path fill="#235983" d="m2355 51 60-1 11 24a172 172 0 0 0 299 3q6-12 10-25h61c15 45 56 84 101 101a174 174 0 0 0 220-101h442c16 1 20 15 20 28l1 129-1 298c-89 32-143 132-109 222 21 54 54 92 110 109l1 48q-9 1-16 6c-79 34-131 141-94 223 21 47 58 85 108 104v47l-7 2c-44 17-81 58-100 100-28 64-5 149 44 196 17 15 44 26 65 35l-1 48a176 176 0 0 0-1 333v48l-20 8c-44 19-71 57-89 101-25 65 0 153 55 196 18 14 34 20 55 28l-2 48a176 176 0 0 0-89 263c27 40 46 53 89 71v45c-19 5-40 18-55 32a177 177 0 0 0 55 303c3 94 1 198 1 293v84c0 19 2 42-1 61-19 23-36 18-64 17h-401c-21-56-68-101-127-117-39-10-80-4-115 16-40 23-71 57-83 102h-55q-1-10-6-19c-21-44-58-78-103-95a168 168 0 0 0-214 114h-54q-25-80-104-111c-57-23-119-8-166 30-28 22-42 48-55 80l-52 1-2-4c-22-54-46-83-101-106q-63-25-125 3c-53 23-76 55-97 107h-54l-4-14c-32-82-131-131-214-98-60 24-83 56-106 112h-53c-14-52-60-97-110-114-39-13-82-11-119 7-50 24-79 56-97 107-19 0-32 0-51 2-21-56-56-97-114-117-86-29-185 28-212 114-99 2-208 0-307 0h-83c-86 1-77 4-78-81v-118c0-81-2-176 1-256 56-23 85-53 108-109 38-90-22-194-108-228l2-44c51-17 90-62 108-112 23-65-4-145-55-189-18-16-33-23-55-31q-2-26 0-50l20-8c84-34 120-151 83-230-21-44-58-78-104-94v-47l15-6q17-8 33-20a176 176 0 0 0-49-308c-1-18 0-31 2-48 157-54 159-271-2-334q-2-24 1-47l19-7c45-20 69-51 88-96 32-76 4-151-57-203q-23-18-51-27-2-24-1-48l20-6c148-79 131-264-18-325V164l-1-58c0-27-7-40 18-54 36-3 102 0 141 0h305l13 26c23 40 62 68 106 80 42 12 88 6 125-17 35-20 65-50 75-90 18-1 43 0 62 1 19 51 61 90 115 105 42 13 88 7 126-15 38-21 66-48 78-91h61a171 171 0 0 0 300 40q11-20 21-40l58 2c64 147 259 147 321 0q30-3 60-1l6 14c51 111 194 128 279 43 19-18 25-34 34-58"/><path fill="#1b3e63" d="M317 171q81 0 163 1h2291l315 1c77-1 154-4 231-1 29 0 65 13 86 34 14 14 34 47 36 68q3 45 2 92l-2 162 1 695v1924q3 82 2 163c0 68-41 118-108 132-21 4-50 2-71 2q-73 0-144-2l-601 2-146-2H522c-69 0-138 4-206 2q-65-3-104-56c-28-37-23-76-23-119l2-134q-2-117-2-236l1-58V894l1-370-2-159c0-41-6-87 15-122 27-47 59-68 113-72"/><path fill="#a5a4a0" d="M524 194c13-3 65-2 81-2h163c21 0 107-7 119-4q-12-1-23 1c5 3 276 3 298 1l-5-3c49-4 103 7 153 4 23-2 47 1 70-1l-14-1v-1c33-4 82 2 116-1 10-1 22 7 31 2s21 2 31 1h337q137 3 274-3c47-2 98 2 145 0l5 2c20 3 52 1 73 1h296l40-2c48 0 108-3 155 1l-3 1c133 4 268-2 401 0 68 2 132-4 151 80l-3 5c4 23 2 84 2 110v897l1 1359v678c-1 24-11 56-31 72q-9 11-23 17c-28 18-122 12-160 12h-246c-29 9-99 1-125 5l6 3-200-2h14c-28-4-62-2-90-3-16 0-39 11-58 2l-12-1-221 1-45 2-142 1c-98-2-194-6-291-3-26 1-50-2-76 1-34 5-81-1-117 2l-58-3q-110-4-218 2c-53 3-111-4-164 0-12 0-54 2-64 0 5-2 6-2 11-2-18-2-31-1-50 0l15 2v1c-30 3-61-3-91-3q-120-3-241 5c-11 0-22 2-32-4-13-10-42 8-53 3l1-2 5-2h-55l2 1-41 1q-57 2-115 0c-52 0-105 5-157-2-16-2-36-11-49-21-13-11-14-12-16-27l-9-19c-14-25-9-160-9-197v-305l-1-97c-6-6-1-221-4-253l-4-16c-1-13 2-30 3-43l1-57 2-362c0-15-3-115 2-122 3-48 1-114 1-164V439c1-51-3-108 2-160 2-26 22-53 44-68 32-22 71-17 109-17h156"/><path fill="#cac9c6" d="M222 3358c13 7 17 30 36 39q33 14 68 19c25 0 51-4 78-4l38 2c11 0 21 4 32 3l-1-2-16-3c7-2 61-1 73 0l1 1-33 1v1c6 2 101 2 107-1 18-8 66 7 73 2l-7-3c4-1 63 0 71 1 24 1 113-7 129-2l1 1c-21 3-46-1-67 1 13 4 51 2 66 2l136-2q33 0 67 2c64 1 127-2 191 0 7 0 8-5 18-4l-6 3c18 3 29-6 43-4 47 7 93 4 140 4h75l128-3c13 0 53-1 64 1-6 1-16 0-19 2 19 5 62-3 85-3 25-1 106 8 124 2h-14c6-3 128-1 144-1 5-1 26 2 32 3 1 0 1-5 7-4 46 2 93-1 139 1h1l-1 3h20c19-3 136 3 145-3l-3 3 6-4-2 2 1-2-2 1 1 2-5 1h4v-3q15-1 30 2 29 2 57 0c7 0 17-4 24-3 48 3 95 7 143 1 11-2 50-3 59 0-10 3-50-1-52 2 34 0 79 2 111 1-11-4-24-1-27-4 66-4 138 3 205 3q21 0 39-2l189-1c8 0 55-1 59 1h-41v2c8 4 23 0 34 0q34 2 69 1l63-6c4-1 5-3 12-2-28 18-122 12-160 12h-246c-29 9-99 1-125 5l6 3-200-2h14c-28-4-62-2-90-3-16 0-39 11-58 2l-12-1-221 1-45 2-142 1c-98-2-194-6-291-3-26 1-50-2-76 1-34 5-81-1-117 2l-58-3q-110-4-218 2c-53 3-111-4-164 0-12 0-54 2-64 0 5-2 6-2 11-2-18-2-31-1-50 0l15 2v1c-30 3-61-3-91-3q-120-3-241 5c-11 0-22 2-32-4-13-10-42 8-53 3l1-2 5-2h-55l2 1-41 1q-57 2-115 0c-52 0-105 5-157-2-16-2-36-11-49-21-13-11-14-12-16-27z"/><path fill="#213c5a" d="M231 3377c22 24 41 41 75 42q49 2 96 1h2556c-29 9-99 1-125 5l6 3-200-2h14c-28-4-62-2-90-3-16 0-39 11-58 2l-12-1-221 1-45 2-142 1c-98-2-194-6-291-3-26 1-50-2-76 1-34 5-81-1-117 2l-58-3q-110-4-218 2c-53 3-111-4-164 0-12 0-54 2-64 0 5-2 6-2 11-2-18-2-31-1-50 0l15 2v1c-30 3-61-3-91-3q-120-3-241 5c-11 0-22 2-32-4-13-10-42 8-53 3l1-2 5-2h-55l2 1-41 1q-57 2-115 0c-52 0-105 5-157-2-16-2-36-11-49-21-13-11-14-12-16-27"/><path fill="#cac9c6" d="m3387 3391 1-5c6-8 22-34 22-43 0-42 2-88 1-130l-3-137c0-9 5-18 5-23v-51q-3-78-3-156c0-10-4-5-3-16q2-23 2-44 3-66 3-133l-2-90 2-47v-321q-1-70-3-140c-1-12 2-38 3-52l-3 6c-2-12 2-55 2-71l-1-156-2-59c0-13 4-28 4-41q-2-105 0-211c1-12-4-25-3-36l3-69c3-45-4-89-4-134q2-38 3-77l1-88-1-9-1 14c-4-8 0-51 1-62h-1q0-102 1-205v-29q2-78 1-158c0-22-8-87-3-102l1 3h1q2-9-1-20v7q-4-20-1-41l1 13c3-7 1-63 1-73-2-54 11-111-16-161-13-26-20-29-45-40l-2-1 2-3c36 12 55 40 65 75 4 23 2 84 2 110v897l1 1359v678c-1 24-11 56-31 72M259 211c-3 10-10 13-17 19-7 7-26 46-25 54 2 29 1 62 1 90 0 29 8 104 3 127l-2-30c-1 23-4 28 3 51 2 5-1 36-2 44l-2 100c0 19-1 48 1 67v-6c3 54-3 108-1 164 3 72-5 148 2 220 2 19-3 38-3 57v68l1 251 1 54v115c-1 45-2 97 0 142 3-10-2-22 2-25a1858 1858 0 0 0-4 141l1 517c0 19 5 56 3 69-5 34 0 82-5 113l-2 1v-2l-1-2h2l-2-8v77c0 24 1 59-1 80-6-6-1-221-4-253l-4-16c-1-13 2-30 3-43l1-57 2-362c0-15-3-115 2-122 3-48 1-114 1-164V439c1-51-3-108 2-160 2-26 22-53 44-68"/><path fill="#213c5a" d="M212 2759c-6-6-1-221-4-253l-4-16c-1-13 2-30 3-43l1-57 2-362c0-15-3-115 2-122 2 51 1 107 1 159v347c0 62-2 129 0 190v77c0 24 1 59-1 80M524 194c13-3 65-2 81-2h163c21 0 107-7 119-4q-12-1-23 1c5 3 276 3 298 1l-5-3c49-4 103 7 153 4 23-2 47 1 70-1l-14-1v-1c33-4 82 2 116-1 10-1 22 7 31 2s21 2 31 1h337q137 3 274-3c47-2 98 2 145 0l5 2c20 3 52 1 73 1h296l40-2c48 0 108-3 155 1l-3 1c133 4 268-2 401 0 68 2 132-4 151 80l-3 5c-10-35-29-63-65-75-20-8-89-6-114-6h-159l-468 1z"/><path fill="#cac9c6" d="M213 2679c3-12 1-25 3-38v-3c1 30 2 51 7 80 2 15-5 43-5 59q1 57-2 114c-2-12 0-25-3-35l-1-97c2-21 1-56 1-80M440 269c79 2 169 0 249 0h2456q45-1 91 1c55 3 105 59 107 113v2365l1 327v150c-2 59-51 114-111 118h-3c-56 2-125 0-182 0H513q-60 1-118-1c-23-1-52-15-68-32q-42-43-40-102V496c0-63-12-143 37-192 36-35 69-35 116-35"/><path fill="#292925" d="M2219 2416c15 0 46-3 58 1 11 20 14 62-18 62l-35-1h-733l-193-1c-13 0-16 0-24-9-5-19-3-75-3-98v-861c0-9 0-26 10-29 15-3 37-3 50 3l3 3c2 39 1 146 1 179 15-1 48-4 59 3 8 11 5 45 4 60h64v63l-64-1v63h-63c0 18-4 110 3 119q5 6 12 6 17 2 34 0l78-1 1 63 62 1c1 16 0 45-1 62h-125v-63l-64 1v187h64v62h63v62l63 1c0-39-2-87 1-125h-127v-63l126-1v-61h126v-126h63v-61c15-1 48-2 62 0l1 61 64 1 1-62 62-1v-62h62v125h-63v63h-62v62l-64 1v-64h-63l1 63h63q-2 31-2 62h-62v63h-127v188h190l1-64h125l1-61h-63c0-14-2-49 2-60 15-6 102-3 123-3 2 16 1 45 1 62h62c2 40 1 85 1 126h126l1-63 62-1z"/><path fill="#cac9c6" d="M1399 2290v126h-64l1-125zM1903 2352h64v64h-63z"/><path fill="#292925" d="M650 1861a296 296 0 0 1 544-112c-16 11-44 27-62 36-41-49-70-79-136-96-57-15-117-6-167 24a215 215 0 0 0 32 391c76 28 167 15 230-37 12-8 43-56 58-43 20 17 59 20 34 50a299 299 0 0 1-534-141H533v206c-19 14-53 34-74 45v-461c1-52-6-109 66-113h205l3 22c-8 8-50 61-52 61-29 12-115-5-140 7-12 14-9 50-9 69l1 92zM763 2399a305 305 0 0 1 305 225c-28 11-78 23-109 31l-197 53-13-92c-75 22-166 47-241 66a275 275 0 0 0 160 268 264 264 0 0 0 354-146l41-1a303 303 0 0 1-490 130 305 305 0 0 1 190-534"/><path fill="#cac9c6" d="M756 2436c114-11 217 60 264 162q-112 31-226 60l-10-75q0-10-5-16c-8 0-66 18-78 21l-185 51a265 265 0 0 1 240-203"/><path fill="#292925" d="M1277 2533c92-2 188 2 281 0 17 0 41 8 43 28q3 69 1 137v101c0 40 12 81-35 91l-192 1-97-1c-17 0-32-12-35-29q-3-30-2-60v-222c0-26 9-41 36-46"/><path fill="#cac9c6" d="M1272 2556c31-2 77 0 109-1h170c25 0 29 1 29 30q2 136 0 271c0 6-7 10-11 12-83 3-169-1-253 1-13 0-39 0-50-6-8-24-1-239-4-274q-2-18 10-33"/><path fill="#292925" d="M1343 2615c30-1 113-6 132 9 45 34 22 88-30 98 32 23 47 54 66 87h-33q-17-27-33-55c-20-33-41-30-75-30v85h-27z"/><path fill="#cac9c6" d="M1370 2636q32-1 63 1c35 4 51 27 27 56-22 13-63 9-90 8z"/><path fill="#292925" d="M3072 1635q34-5 66 4c1 16 2 80-1 93-7 6-46 1-65 4a187 187 0 0 0-155 131c52 1 107-3 158 3 8 1 7 82 2 91-14 7-139 3-161 3 30 94 92 136 188 139 32-3 38-10 34 32-1 17 5 46-2 61q-8 9-19 8-114 7-201-61a285 285 0 0 1 156-508M2649 1633c11-1 44-2 51 7 4 23 1 62 0 86q1 12-11 10c-97-16-190 47-211 143a187 187 0 0 0 168 222c13 1 47-5 54 5 3 17 3 78-2 93-7 6-29 4-40 4q-105 1-187-69a288 288 0 0 1-28-404c54-61 126-92 206-97M1898 421l16-2-1 286-52-1v-22q-74 52-147 0c-115-107 21-291 146-193-1-38-8-62 38-68"/><path fill="#cac9c6" d="M1778 519a67 67 0 1 1 25 131 67 67 0 0 1-25-131"/><path fill="#292925" d="m2781 431 10 1c4 5 2 252 2 281h-50l-1-21q-75 50-146-4c-103-92 7-286 144-189 1-42-8-61 41-68"/><path fill="#cac9c6" d="M2658 530a66 66 0 1 1 30 128 66 66 0 0 1-30-128"/><path fill="#292925" d="M934 1731c60-7 132 31 156 87-18 11-43 23-62 32-22-25-39-45-77-48q-43-2-76 25-31 30-33 71 0 40 27 70 29 29 69 30c22 1 51-8 68-22 7-5 17-18 25-25 9 3 57 29 60 36q-5 12-14 23c-60 71-173 81-245 23q-53-44-60-113c-10-101 61-180 162-189M1967 1540h63v63h189v63h-62v62h62v62h-126v63h-126v-125h127v-62h-127zM3003 479a119 119 0 1 1 38 235 119 119 0 0 1-38-235"/><path fill="#cac9c6" d="M3016 529a67 67 0 1 1 14 134 67 67 0 0 1-14-134"/><path fill="#292925" d="M2030 1915c15 0 50-1 63 1v61q63 2 126 0v63h-63v124c20 0 109-2 124 3 5 12 2 46 2 61h-252v-124h64l-1-63h-63c2-36 0-89 0-126M1526 1478l61 1v61h65v-61h62c2 19 1 48 1 68v55c-17 2-46 1-64 2v62c-18 1-110 2-123-4-6-9-3-46-3-59h-126l-1-90c0-13-1-25 8-34 15-1 40-3 52 4 8 11 5 41 4 57h63c0-19-1-43 1-62M1535 458c51 2 93 32 107 82q7 32 4 65l-170-1 8 16q13 21 37 28c27 7 48-2 70-15l19 16 19 18q-35 32-83 36c-160 11-177-236-11-245"/><path fill="#cac9c6" d="M1523 509c39-4 58 14 71 49l-44-1h-75c10-28 21-39 48-48"/><path fill="#292925" d="M1260 458c37-4 71 2 98 30 34 33 35 71 35 116l-171-1c7 16 13 29 29 38 20 12 46 10 66 0q9-5 20-9l4 3c8 7 23 17 27 26 0 19-35 32-52 37-33 8-68 3-97-15q-40-25-52-73c-16-70 22-136 93-152"/><path fill="#cac9c6" d="M1270 507c39-3 57 14 71 49h-42l-77-1c9-27 20-40 48-48"/><path fill="#292925" d="M1024 454c32 2 60 9 82 34 32 35 34 70 33 114l-171-1 8 16q14 23 41 29c26 5 45-3 65-17l16 12 22 21c-38 45-123 49-165 12-81-73-46-210 69-220"/><path fill="#cac9c6" d="M1019 506c38-2 54 13 67 47H969c9-28 21-40 50-47"/><path fill="#292925" d="m2222 1188 26 1c88 14 100 153 25 191q-15 7-32 10-38 3-68-19c-55-44-47-155 24-178q13-4 25-5"/><path fill="#cac9c6" d="M2221 1211c50-4 77 35 75 82q0 56-53 74c-75 5-95-69-67-127 8-17 27-25 45-29"/><path fill="#292925" d="M1940 860c121-6 139 178 21 202-128 12-147-183-21-202"/><path fill="#cac9c6" d="M1940 883q15 0 30 4c55 19 58 117 10 145l-22 7q-22 3-42-8c-46-26-46-115 0-140q11-6 24-8"/><path fill="#292925" d="M1177 1186c34 0 98-5 124 15 45 35 43 114 11 156-33 33-89 24-135 24z"/><path fill="#cac9c6" d="M1203 1209c21 0 63-3 80 10 35 25 31 92 9 124-25 20-58 15-90 15z"/><path fill="#292925" d="M794 455c34 0 60 8 87 30-9 14-17 23-28 36-22-14-59-30-85-9q-7 6-7 17c11 28 85 19 109 47q18 18 18 45c0 65-52 78-105 77-22-1-72-11-81-33-1-11 17-29 25-38 15 9 27 16 44 21 19 5 59 4 63-22-6-34-136-18-127-96 6-54 37-72 87-75M2100 470q48 0 89 27l-27 39c-19-12-55-26-73-15-44 25 4 42 27 44 36 6 77 22 78 65 1 63-44 79-97 80-34-2-64-8-88-34q13-18 28-35c23 15 66 33 93 13q9-6 11-16c-9-33-119-18-123-83-3-58 30-79 82-85M2329 479h51v86c0 37-6 89 44 96 22 4 48-17 51-39 4-45 2-97 2-142h52l-1 51c0 48 8 116-28 153-36 38-105 38-143 0a97 97 0 0 1-25-42c-6-24-3-131-3-163M498 483a82 82 0 1 1 19 163 82 82 0 0 1-19-163M1221 860c80-2 81 122 54 173q-14 23-41 27-61-1-69-60c-9-50-8-129 56-140"/><path fill="#cac9c6" d="M1216 881c47-4 49 45 49 79 0 29-1 63-30 79-54 5-49-63-47-99 1-24 6-47 28-59"/><path fill="#292925" d="M1984 2921c31 0 108-5 132 9q16 10 21 28c9 39-15 62-50 70 27 17 48 59 68 88-9 0-26 1-33-1-16-22-30-48-47-68-16-19-42-17-65-17v86h-26z"/><path fill="#cac9c6" d="M2010 2943q32-1 64 0c34 4 53 26 28 55-24 14-63 10-92 10z"/><path fill="#292925" d="M2071 865c29-1 112-5 131 9 45 36 24 86-28 98 30 23 46 56 66 88-8 1-30 2-35-2-9-13-20-31-27-45-22-40-39-40-80-39v86h-27z"/><path fill="#cac9c6" d="m2098 887 55-1c35 2 65 23 35 57-24 14-61 7-90 8z"/><path fill="#292925" d="M2354 1192c43 1 135-13 151 34 14 40-11 62-45 72 26 24 44 59 63 90-13 0-28 4-37-7q-12-18-23-38c-24-43-37-43-83-42v86h-26z"/><path fill="#cac9c6" d="M2380 1214c30 0 136-8 92 54-23 16-64 11-92 10z"/><path fill="#292925" d="M650 2803h163q54-1 108 1l1 48H796v91l-47-1 1-90c-21 0-107 2-123-2-6-7-3-35-3-46zM1520 862c42-4 59 10 69 49l-25 1c-7-26-28-44-53-23-20 16-22 40-24 64 36-34 79-30 101 15 9 35 1 76-36 89q-25 10-49-2c-50-25-48-118-25-162q14-25 42-31"/><path fill="#cac9c6" d="M1526 952c51 1 58 75 7 89-49-4-61-76-7-89"/><path fill="#292925" d="M1884 2969c35-1 65 23 69 57 7 48-8 85-59 93-90 3-102-136-10-150"/><path fill="#cac9c6" d="M1883 2990c20 0 37 9 43 27 10 34 5 69-30 81-63 2-67-93-13-108"/><path fill="#292925" d="M2270 438c4 6 2 49 2 59h27v53l-27-1v60c0 24-1 45 24 54-1 17 3 32-2 47-6 4-4 2-13 2-70-17-59-74-59-130l1-127zM2318 865l27 1 80 196h-30l-22-59h-82l-20 58h-29q36-99 76-196"/><path fill="#cac9c6" d="M2330 891c11 25 24 63 35 90h-67c12-31 22-58 32-90"/><path fill="#292925" d="M2599 1193h29q40 98 79 195h-30l-22-58h-81l-21 58h-28l12-33q30-82 62-162"/><path fill="#cac9c6" d="M2612 1221c6 5 29 74 34 87h-65q17-44 31-87"/><path fill="#292925" d="M627 2728h294c1 12 5 41-4 49H731c-33 0-74 1-107-1 0-14-2-36 3-48M2418 2921h138v23h-111l-1 60h105v23h-100l-2 1c-4 7-3 53-2 64h116v24h-143zM2227 2969c96-4 46 84 70 148-20 0-24 4-32-16-35 23-85 34-99-18 0-39 29-48 63-50 88-6-10-83-35-17l-1 2c-11-1-14 0-21-7-4-25 35-39 55-42"/><path fill="#cac9c6" d="M2262 3046c3 3 3 19 1 24q-5 17-23 26c-14 6-24 5-38 0-38-41 38-43 60-50"/><path fill="#292925" d="m2818 1193 138 1v24h-111v59l106 1-1 23h-95c-5-1-3-1-8 1-5 10-3 50-3 64h116v23h-142zM2445 867h138v23h-112v58l104 1v23h-92c-6 0-6-1-11 1-2 9-2 53-2 66h118v23l-143-1zM1813 2640c52-1 57 44 56 86-1 30-9 58-41 67-56 2-59-45-58-89 1-30 12-57 43-64"/><path fill="#cac9c6" d="M1813 2655c32-1 37 29 37 56 0 24 0 54-24 67-31 0-36-28-36-53-1-26-2-56 23-70"/><path fill="#292925" d="M2347 2640c50 0 55 47 53 87-1 31-9 58-42 67q-47 0-54-48c-6-39-6-98 43-106"/><path fill="#cac9c6" d="M2345 2655c36 0 37 39 36 66 0 23-2 44-23 56-46 1-39-66-33-97q3-17 20-25"/><path fill="#292925" d="M1679 1188h21v125h25v24h-26v46h-24v-42l-1-3c-8-3-72-2-83-2l-1-23z"/><path fill="#cac9c6" d="M1673 1230c4 5 2 71 2 83h-57l-2-2z"/><path fill="#292925" d="M2834 2921h26v80h100v-80h26c0 21 2 189-2 194l-6 1q-10 1-17-3c-3-20-1-67-1-89h-100v92h-26zM2773 868h26v80h98l-1-80 27 1v127c0 15 1 53-1 65q-8 3-17 2c-5 0-3 1-7-2-3-12-2-72-1-90h-98v92h-26zM1394 861h20v127h27v22h-27v47h-24v-38c0-6 1-4-3-7-15-3-66-2-83-2l1-23q45-62 89-126"/><path fill="#cac9c6" d="M1388 903c4 10 2 72 2 85h-58c0-8 49-74 56-85"/><path fill="#292925" d="M2571 2639c29-1 56 7 56 42-1 19-17 24-17 30 38 19 29 69-14 82-35 3-68-13-61-56 2-13 13-21 24-28-31-21-24-59 12-70"/><path fill="#cac9c6" d="M2579 2718a30 30 0 1 1 10 60 30 30 0 0 1-10-60M2574 2656a24 24 0 1 1 18 45 24 24 0 0 1-18-45"/><path fill="#292925" d="M1777 1728h63l1 62h63l-1 63h-125zM2030 2041l-1 62-62 1v60h-63v-124zM1439 1187h139v23c-39 49-81 102-122 149l125-1v22c-7 4-135 1-154 1v-24c35-47 81-100 118-146h-106zM1464 1853h61v62l62 1-1 62q-61 0-124-1c0-19-1-111 2-124M684 855c43-2 67 21 80 60l-26 4c-15-40-49-54-88-30-34 25-33 96-8 126 23 27 57 27 82 5 11-13 13-19 17-34l26 5c-4 15-8 25-16 38-24 36-87 37-119 12-53-43-48-157 23-180 11-4 18-5 29-6M709 1181c50-4 74 13 92 58l-26 5-4-7c-5-14-15-27-29-31-95-30-110 132-34 153q25 5 48-10c13-12 16-22 21-39l26 6c-17 60-72 84-127 55-56-31-58-148 0-178 12-7 19-9 33-12M912 1181c45 0 66 17 82 59l-26 5c-8-21-18-38-43-41-76-11-89 94-53 138 22 27 58 25 83 2 9-11 11-19 15-32l27 5c-7 20-18 45-37 55-128 62-187-135-77-185q13-5 29-6M2637 869l96 1 1 23h-78q-5 25-9 51c105-57 142 129 17 122-34-9-43-23-51-55l25-2c5 15 14 33 29 36 50 11 72-73 22-88-26-8-31 7-54 16l-17-2q10-49 19-102M3010 1197h97v23h-78l-10 53q17-11 37-12 24-1 41 16c35 35 20 102-28 114-12 3-19 3-31 2-34-9-42-20-52-53q13-3 27-3c4 15 14 37 33 38 54 1 64-95 2-92-16 0-24 7-34 18l-23-2zM2609 2923c16 0 82-2 93 2q3 10 1 22h-77l-9 50c94-51 135 92 50 120q-16 3-32 2c-33-7-42-23-51-53l26-4c5 20 12 35 34 37 58 5 58-92 3-92-15 0-27 11-37 21l-21-3c5-24 12-84 20-102M922 859c34 0 64 16 65 53 0 47-66 86-95 120l96-1v24H857c9-51 54-69 87-105 59-64-47-106-56-34l-1 3-25-3c6-38 22-53 60-57M2835 506h41c0 23 2 199-3 207h-46V576c0-19-1-42 1-60q1-6 7-10M2964 869h131v24l-105-1v60c15 0 78-1 89 1l2 4-1 16c-6 5-77 2-90 2v88h-26zM3028 2921h130v23h-104v61c13 0 80-1 89 1l1 3q1 10-1 18c-11 3-73 2-89 2v87h-26zM478 1182l130 1v24l-104-1v61c22 0 68-1 88 1l2 3c0 8 1 9-1 17-7 5-76 2-89 1l-1 89h-25zM1742 1189h155v23l-65-1v173h-26v-172h-64zM1841 1665c35-2 89-1 126-1l-1 64h-125zM1652 1665h125v63h-125zM2093 1853l126 1v62h-126zM1587 1728h63c0 36 2 90 0 125h-62zM1651 2290h125l1 63h-125zM1994 1190l27-1-1 173h96v24h-122zM1682 2921h27l-1 171h96v24h-122zM1713 863h26v172l95-1v24h-122zM2712 2641c7 0 7-2 13 1 11 24-8 85 11 97h10q2 7 1 13c-7 6-7 0-18 4-6 13 5 27-8 37-16 2-13-24-12-34-3-11-52 2-64-6q-2-3-3-7c0-12 59-91 70-105"/><path fill="#cac9c6" d="M2708 2672c2 11 1 53 1 66h-44c0-8 36-56 43-66"/><path fill="#292925" d="M1086 859q9-1 16 2v195h-25V904c-17 14-28 20-48 29v-25c25-12 42-25 57-49M1694 2640c27-2 54 5 57 37 4 40-51 68-73 96 14 0 64-3 72 2 2 7 2 6 1 13-11 5-58 3-73 3-10 1-22 4-26-5 2-40 141-106 52-131-20-6-27 34-42 32-5-4-5-3-7-9 1-19 22-34 39-38M2108 2640c29-2 57 6 59 39 2 39-49 65-72 92l-1 2c15 0 56-2 69 0 4 6 2 7 2 15-5 5-65 3-77 3h-20c8-38 31-48 57-72 15-14 34-38 15-56-38-34-42 22-60 24-10-6-7-19-2-28q11-16 30-19M2230 2640c24 0 46 10 48 38 1 15-7 21-17 31 10 7 21 14 23 26 11 62-79 86-97 22q0-5 4-8c6-2 6-2 12-1 5 4 7 14 10 20 9 9 16 12 29 9q12-3 18-14c5-9 5-22 2-30-7-17-24-9-37-15-2-5-2-4-1-11 11-10 34-3 34-27 1-16-12-26-28-26-19 1-14 29-34 30-10-8-7-16 0-25 9-14 18-17 34-19M534 858h27v131c0 17 0 50-2 65h-25zM1106 1186h26l-1 194-25 1zM1778 1603h62q2 31 1 62c-10 2-52 1-64 0zM2219 1541l64-1v63h-64zM2219 1790h64v63h-63zM2219 1665c70-1 68-9 63 63h-63zM1841 1540l63 1v62h-64zM2035 1478h59q0 27-1 54 0 6-6 9l-57 1c1-18-4-51 5-64M2157 1479c16-1 47-5 58 4 8 12 4 41 4 58h-63zM1780 1478l60 1c1 11 2 53-1 62h-62c1-15-1-50 3-63M2094 2290h61c2 16 1 45 1 63h-62zM2219 2040h63v62l-63 1zM1904 1541c0-14-4-50 5-59 6-6 49-5 57-2v61zM2219 2290h63l-1 62-62 1zM2220 1916c67-2 66-10 62 60-10 3-50 2-63 2zM2476 2639c7 1 7-1 10 3 1 18 2 142-2 148q-9 3-15-4c-3-8-2-25-1-35v-77c-8 6-27 23-36 17-6-16 21-25 31-36zM1944 2639l10 2v2q2 73 0 145l-2 3c-6 1-6 1-12-1-8-9-4-31-4-44l1-72c-13 10-23 16-38 23l1-19c22-13 29-19 44-39M2847 423a27 27 0 1 1 8 54 27 27 0 0 1-8-54M2730 3031h75v26h-75zM2316 3031h74v26h-74zM1610 975l76-1v26l-76-1zM1893 1301h74v24h-74zM2715 1304h74v24h-73zM2017 2727c12 0 36-5 40 8-2 11-3 10-13 11-13 0-35 5-44-5-1-6-2-6 0-12q8-3 17-2M800 912h27v29h-28zM799 1026h29l-1 29h-28zM1372 1353h27v29l-28-1zM1371 1239h27v28h-27z"/><path fill="#213c5a" d="M208 269c25-34 12-47 46-61l-3-4c22-23 108-6 140-18-7 2 99 5 103 5l1 2-24 1H368c-38 0-77-5-109 17-22 15-42 42-44 68-5 52-1 109-2 160l-3 11h-1c-3-16-2-95-2-114v2q2-35 1-69"/></svg>